HIERARCHY
ROOT Hips
{
	OFFSET 0.000000 0.000000 0.000000
	CHANNELS 6 Xposition Yposition Zposition Zrotation Yrotation Xrotation 
	JOINT LeftUpLeg_virtual
	{
		OFFSET 0.000000 0.000000 0.000000
		CHANNELS 3 Zrotation Yrotation Xrotation
		JOINT LeftUpLeg
		{
			OFFSET 10.205400 -3.823500 0.155100
			CHANNELS 3 Zrotation Yrotation Xrotation
			JOINT LeftLeg
			{
				OFFSET 0.708757 -12.982077 0.567790
				CHANNELS 3 Zrotation Yrotation Xrotation
				JOINT LeftFoot
				{
					OFFSET -0.708756 -10.717838 -2.184338
					CHANNELS 3 Zrotation Yrotation Xrotation
					JOINT LeftToeBase
					{
						OFFSET 0.108149 -7.191104 7.560241
						CHANNELS 3 Zrotation Yrotation Xrotation
						End Site
						{
							OFFSET 0.000000 0.000000 0.000000
						}
					}
				}
			}
		}
	}
	JOINT RightUpLeg_virtual
	{
		OFFSET 0.000000 0.000000 0.000000
		CHANNELS 3 Zrotation Yrotation Xrotation
		JOINT RightUpLeg
		{
			OFFSET -10.205400 -3.823500 0.005500
			CHANNELS 3 Zrotation Yrotation Xrotation
			JOINT RightLeg
			{
				OFFSET -0.708756 -12.982134 0.610632
				CHANNELS 3 Zrotation Yrotation Xrotation
				JOINT RightFoot
				{
					OFFSET 0.708754 -10.717769 -1.945823
					CHANNELS 3 Zrotation Yrotation Xrotation
					JOINT RightToeBase
					{
						OFFSET -0.108140 -7.191069 7.372968
						CHANNELS 3 Zrotation Yrotation Xrotation
						End Site
						{
							OFFSET 0.000000 0.000000 0.000000
						}
					}
				}
			}
		}
	}
	JOINT Spine_virtual
	{
		OFFSET 0.000000 0.000000 0.000000
		CHANNELS 3 Zrotation Yrotation Xrotation
		JOINT Spine
		{
			OFFSET 0.000000 6.876099 0.125700
			CHANNELS 3 Zrotation Yrotation Xrotation
			JOINT Spine1
			{
				OFFSET 0.000000 8.022060 0.146608
				CHANNELS 3 Zrotation Yrotation Xrotation
				JOINT Spine2
				{
					OFFSET 0.000000 9.168068 0.167552
					CHANNELS 3 Zrotation Yrotation Xrotation
					JOINT Neck_virtual
					{
						OFFSET 0.000000 0.000000 0.000000
						CHANNELS 3 Zrotation Yrotation Xrotation
						JOINT Neck
						{
							OFFSET 0.000000 10.314075 0.188496
							CHANNELS 3 Zrotation Yrotation Xrotation
							JOINT Head
							{
								OFFSET 0.000000 7.643700 -2.377400
								CHANNELS 3 Zrotation Yrotation Xrotation
								End Site
								{
									OFFSET 0.000000 0.000000 0.000000
								}
							}
						}
					}
					JOINT LeftShoulder_virtual
					{
						OFFSET 0.000000 0.000000 0.000000
						CHANNELS 3 Zrotation Yrotation Xrotation
						JOINT LeftShoulder
						{
							OFFSET 4.392200 8.824978 0.174984
							CHANNELS 3 Zrotation Yrotation Xrotation
							JOINT LeftArm
							{
								OFFSET 8.771219 -2.981674 -0.026999
								CHANNELS 3 Zrotation Yrotation Xrotation
								JOINT LeftForeArm
								{
									OFFSET 8.512804 0.000000 -0.000000
									CHANNELS 3 Zrotation Yrotation Xrotation
									JOINT LeftHand
									{
										OFFSET 18.484802 0.000000 -0.000000
										CHANNELS 3 Zrotation Yrotation Xrotation
										End Site
										{
											OFFSET 0.000000 0.000000 0.000000
										}
									}
								}
							}
						}
					}
					JOINT RightShoulder_virtual
					{
						OFFSET 0.000000 0.000000 0.000000
						CHANNELS 3 Zrotation Yrotation Xrotation
						JOINT RightShoulder
						{
							OFFSET -4.392200 8.824993 0.141379
							CHANNELS 3 Zrotation Yrotation Xrotation
							JOINT RightArm
							{
								OFFSET -8.771282 -2.981682 -0.094208
								CHANNELS 3 Zrotation Yrotation Xrotation
								JOINT RightForeArm
								{
									OFFSET -8.494598 0.000000 0.000000
									CHANNELS 3 Zrotation Yrotation Xrotation
									JOINT RightHand
									{
										OFFSET -18.483803 0.000000 0.000001
										CHANNELS 3 Zrotation Yrotation Xrotation
										End Site
										{
											OFFSET 0.000000 0.000000 0.000000
										}
									}
								}
							}
						}
					}
				}
			}
		}
	}
}
MOTION
Frames: 14
Frame Time: 0.033333
19.121264 35.169334 -3.894653 -179.957480 15.071565 179.935528 -3.360962 -0.758772 5.777318 -9.352943 -4.889586 -21.672402 15.313417 8.122922 20.956004 -2.133769 1.514571 3.546105 0.000000 0.000000 0.000000 1.535075 1.809557 4.251581 2.003452 -2.895073 -29.449908 -5.844749 1.691204 39.166729 6.568197 10.841194 12.984755 0.000000 0.000000 0.000000 -0.919366 2.447076 -3.984951 -0.314389 -2.942024 -8.161536 -0.973878 -2.136616 8.887371 0.017409 0.000564 0.000893 -1.187874 -0.224610 10.263219 -0.383360 -3.087213 20.392216 0.000000 0.000000 0.000000 0.176672 0.243442 7.238541 -8.209160 -5.218913 -2.822736 -40.071142 16.444961 6.792250 0.791604 -59.574577 0.972208 0.000000 0.000000 0.000000 -3.376310 1.213213 6.648596 18.951244 2.383608 -2.568639 28.423081 -3.880569 9.567488 -7.894100 66.513933 -7.467805 0.000000 0.000000 0.000000 
19.087793 35.137394 -4.784237 -179.983899 14.469107 -179.857350 -3.419018 -0.550514 5.755639 -9.714699 -4.547777 -20.559535 14.727461 8.473851 21.910535 -2.525657 1.543075 1.438583 0.000000 0.000000 0.000000 1.468642 2.287241 3.957818 2.912471 -2.260894 -31.375987 -6.137767 1.384943 32.647187 6.790799 10.561828 14.838709 0.000000 0.000000 0.000000 -1.048328 2.561732 -4.109207 -0.244375 -3.013744 -8.362371 -0.836006 -2.231526 8.777369 -0.042875 0.032405 -0.000043 -0.940612 -0.464184 10.301506 -0.079279 -3.134810 20.436076 0.000000 0.000000 0.000000 0.416315 0.070019 7.356924 -8.185650 -5.736242 -2.571450 -38.116376 14.727891 7.450713 0.310343 -60.254372 0.933137 0.000000 0.000000 0.000000 -3.133094 1.049087 6.727004 19.831166 2.369075 -2.968182 28.552933 -1.681601 6.602584 -8.749679 69.358249 -8.600865 0.000000 0.000000 0.000000 
19.046005 35.047802 -5.659117 179.946566 13.638231 -179.887676 -3.403372 -0.212364 5.899409 -10.164168 -4.564107 -19.414645 14.199574 8.744595 22.599810 -2.989565 1.556001 0.071060 0.000000 0.000000 0.000000 1.412025 2.630032 3.835465 3.649447 -1.354619 -32.860166 -6.576600 0.847217 26.025896 7.002186 10.071754 16.651132 0.000000 0.000000 0.000000 -1.079771 2.880568 -4.128716 -0.179403 -3.021712 -8.418901 -0.711837 -2.422509 8.728979 0.008417 -0.008485 0.034725 -0.919786 -0.414617 10.219953 0.059303 -3.191175 20.409481 0.000000 0.000000 0.000000 0.369209 -0.108214 7.301873 -8.350776 -6.279337 -2.265940 -36.309805 12.796286 7.833441 -0.378880 -60.448165 1.178509 0.000000 0.000000 0.000000 -3.146786 0.841226 6.717004 20.785859 2.258436 -3.489382 28.867808 0.291708 3.070834 -9.021847 70.615973 -9.191925 0.000000 0.000000 0.000000 
19.012991 34.922092 -6.566761 -179.948970 12.390946 -179.748859 -2.996853 -0.076574 6.008617 -10.728252 -4.918029 -18.424247 13.616420 8.877972 23.299676 -3.413461 1.663092 -0.895375 0.000000 0.000000 0.000000 1.598901 2.794189 3.670215 4.318744 -0.371073 -34.023699 -6.963825 0.351464 19.951734 7.096047 9.494128 18.217346 0.000000 0.000000 0.000000 -0.849192 3.004657 -4.293056 0.088468 -2.859651 -8.454062 -0.799276 -2.601453 8.640541 0.013082 -0.005579 0.070574 -1.006766 -0.822253 10.229161 0.051508 -3.253402 20.282679 0.000000 0.000000 0.000000 0.310182 -0.324890 7.393279 -8.648294 -6.820365 -2.049049 -34.817890 10.733146 8.033587 -0.922903 -60.373312 1.391184 0.000000 0.000000 0.000000 -3.137772 0.596683 6.786175 21.659261 2.022202 -3.888596 29.241413 1.651153 -0.493646 -8.772133 70.319161 -9.218221 0.000000 0.000000 0.000000 
19.000498 34.795101 -7.529398 -179.994063 11.237002 -179.601341 -2.607226 0.122777 6.154747 -11.520508 -5.412974 -17.369364 13.425066 9.118028 24.159752 -3.898826 1.814749 -1.323103 0.000000 0.000000 0.000000 1.718717 2.918283 3.355954 4.803894 0.609583 -34.857946 -7.253421 -0.018730 14.863103 7.211381 8.985512 19.421223 0.000000 0.000000 0.000000 -0.578941 3.042967 -4.520944 0.320601 -2.555655 -8.408869 -0.920783 -2.779980 8.536368 -0.017804 0.024690 0.056970 -1.138748 -1.058669 10.235226 -0.037861 -3.358134 19.962147 0.000000 0.000000 0.000000 0.179059 -0.522190 7.484445 -9.054706 -7.189864 -1.756765 -33.728963 8.956524 7.892314 -1.510962 -60.380826 1.731251 0.000000 0.000000 0.000000 -3.174027 0.363954 6.960931 22.324075 1.781935 -4.316535 29.708464 2.299317 -3.256624 -8.283280 68.634051 -9.007309 0.000000 0.000000 0.000000 
19.030092 34.690628 -8.553533 179.894970 9.856386 -179.365986 -2.325727 -0.161536 6.171690 -12.025877 -5.765358 -16.500731 13.515148 9.717505 25.026711 -4.930127 1.555280 -1.248047 0.000000 0.000000 0.000000 1.740733 2.770253 3.058696 5.192946 1.419696 -35.324512 -7.411533 -0.188168 11.176224 7.132885 8.537327 19.978153 0.000000 0.000000 0.000000 -0.370454 2.920056 -4.936237 0.556441 -2.082015 -8.294372 -1.052422 -3.076231 8.644815 -0.017342 0.104387 0.094740 -1.342559 -1.289750 10.266686 -0.106886 -3.489598 19.602670 0.000000 0.000000 0.000000 -0.062826 -0.735239 7.488674 -9.474680 -7.385168 -1.435584 -33.120970 7.800414 7.734249 -1.975172 -60.716789 2.006132 0.000000 0.000000 0.000000 -3.353635 0.180369 6.959236 22.773799 1.493429 -4.478791 30.328751 2.279131 -5.459134 -7.534671 65.811017 -8.529854 0.000000 0.000000 0.000000 
19.126823 34.606823 -9.634050 179.897907 8.010181 -179.120932 -1.945264 -0.477331 6.443774 -12.270921 -6.391131 -15.578919 13.634174 10.367985 26.053705 -6.035335 1.118194 -0.575377 0.000000 0.000000 0.000000 1.945409 2.172854 2.901039 5.373675 2.167786 -35.511496 -7.496248 -0.290075 8.666912 7.020798 8.270290 20.162978 0.000000 0.000000 0.000000 0.020196 2.503534 -5.148241 0.832393 -1.620870 -8.152799 -1.281072 -3.122061 8.473791 0.029564 0.050983 0.145652 -1.623539 -1.422639 10.378584 -0.184053 -3.764974 19.255254 0.000000 0.000000 0.000000 -0.313603 -0.914949 7.595214 -9.856934 -7.416903 -1.014099 -32.983154 7.514788 7.966114 -2.395072 -61.356546 2.312792 0.000000 0.000000 0.000000 -3.496953 -0.059219 7.086368 23.043175 1.125734 -4.607859 31.020448 1.793630 -7.107664 -6.786917 62.218830 -8.082911 0.000000 0.000000 0.000000 
19.313499 34.558037 -10.765942 179.853689 5.812484 -178.860333 -1.662184 -0.844531 6.765557 -12.120134 -7.132837 -14.813371 13.848325 10.863333 26.950991 -7.414928 0.348725 0.447107 0.000000 0.000000 0.000000 2.128194 1.403337 2.925236 5.440476 2.626586 -35.405467 -7.541461 -0.134732 7.367748 6.749337 8.054630 20.106581 0.000000 0.000000 0.000000 0.359901 1.975654 -5.369765 1.092105 -1.091535 -7.962882 -1.480059 -3.288601 8.400184 0.012817 0.015979 0.159724 -1.837326 -1.591696 10.376953 -0.072330 -4.076755 18.622985 0.000000 0.000000 0.000000 -0.542009 -0.923130 7.602819 -10.105810 -7.142094 -0.640945 -33.160715 8.151523 8.820103 -2.929524 -62.398231 2.859875 0.000000 0.000000 0.000000 -3.665803 -0.142674 7.213939 23.106149 0.895512 -4.802931 31.692177 0.893721 -8.619163 -5.918247 57.883299 -7.570646 0.000000 0.000000 0.000000 
19.591177 34.542110 -11.966869 179.808323 3.704733 -178.862505 -1.371469 -1.624789 6.980333 -11.521742 -7.546310 -14.483843 14.114033 10.717221 27.779805 -9.093573 -0.885208 2.458728 0.000000 0.000000 0.000000 2.221405 1.035788 3.288605 5.446798 2.942903 -34.689971 -7.481941 -0.243254 7.197971 6.396088 7.909248 19.379501 0.000000 0.000000 0.000000 0.673507 1.350917 -5.411032 1.288098 -0.234986 -7.673689 -1.602544 -3.152988 8.381501 0.022710 -0.022138 0.221771 -1.974951 -1.690454 10.338758 0.167048 -4.485589 18.071757 0.000000 0.000000 0.000000 -0.696884 -1.067633 7.549898 -10.226671 -6.966498 -0.136674 -33.622095 9.590826 10.221903 -3.407864 -63.320560 3.454892 0.000000 0.000000 0.000000 -3.802658 -0.257300 7.139224 22.970215 0.628120 -4.772429 32.298411 -0.229871 -10.197502 -5.220170 52.941831 -7.242089 0.000000 0.000000 0.000000 
19.930210 34.565033 -13.243845 179.733819 1.375710 -178.928171 -1.123737 -2.528503 7.177963 -10.682395 -7.799605 -14.311689 13.897135 9.047941 28.414663 -10.614826 -2.071457 5.327380 0.000000 0.000000 0.000000 2.533453 0.180765 3.598941 5.399256 3.092507 -33.733013 -7.424477 0.436164 7.732815 6.206358 7.783192 18.952329 0.000000 0.000000 0.000000 0.947295 0.902479 -5.560165 1.427701 0.414320 -7.358811 -1.701021 -3.210104 8.694739 0.029245 0.079738 0.076768 -2.043013 -1.743133 10.271116 0.548492 -4.923150 17.459685 0.000000 0.000000 0.000000 -0.712531 -1.069868 7.478090 -10.334229 -6.777980 0.314424 -34.207766 11.559212 12.158754 -4.137282 -63.694403 4.411797 0.000000 0.000000 0.000000 -3.847337 -0.257207 7.132691 22.673257 0.498001 -4.764944 32.913398 -1.502859 -11.443253 -4.525955 47.851028 -6.923209 0.000000 0.000000 0.000000 
20.294109 34.616585 -14.565588 179.703889 -0.778021 -179.103748 -0.850930 -3.679046 7.222839 -9.720596 -8.446827 -14.128404 13.154569 6.086005 28.951720 -12.292438 -3.062907 9.044034 0.000000 0.000000 0.000000 3.170472 -0.259801 3.906495 5.149476 2.733859 -32.719109 -6.981185 1.560060 6.960546 6.593488 8.580352 20.989323 0.000000 0.000000 0.000000 1.206769 0.369398 -5.457889 1.530234 1.156689 -6.906006 -1.694293 -3.112192 8.513985 0.022550 0.154636 0.092825 -2.076685 -1.657911 10.341162 1.025248 -5.381428 16.746055 0.000000 0.000000 0.000000 -0.814541 -0.958861 7.484584 -10.445656 -6.447941 0.849763 -34.892517 13.969941 13.996892 -4.501644 -63.732222 5.048235 0.000000 0.000000 0.000000 -3.896792 -0.186195 7.229469 22.315572 0.481168 -4.576184 33.542400 -2.888957 -12.008360 -3.956284 43.265717 -6.705883 0.000000 0.000000 0.000000 
20.669470 34.659489 -15.898230 179.542492 -3.130786 -179.478165 -0.779113 -4.999870 7.202709 -8.494542 -11.134152 -13.750891 12.697991 4.409691 30.055834 -13.986817 -3.620898 12.223190 0.000000 0.000000 0.000000 4.442871 -1.043655 3.724586 4.285508 2.385879 -32.021481 -7.084174 4.599627 7.030765 8.250598 9.936068 20.929503 0.000000 0.000000 0.000000 1.347860 -0.362880 -5.346718 1.510050 1.801623 -6.326044 -1.679882 -3.029628 8.387946 0.025582 0.162423 0.089010 -2.053481 -1.616872 10.462006 1.488957 -5.838148 16.250871 0.000000 0.000000 0.000000 -0.766960 -0.848664 7.613251 -10.594926 -6.015005 1.394104 -35.830312 16.640033 15.225352 -4.579229 -62.994807 5.435319 0.000000 0.000000 0.000000 -3.901764 -0.091941 7.366076 21.939561 0.614452 -4.331862 34.353003 -4.231989 -11.278422 -3.428226 39.497461 -6.452700 0.000000 0.000000 0.000000 
21.038366 34.695667 -17.204323 179.416925 -5.838452 179.910693 -0.895981 -5.854663 7.361919 -7.435949 -11.014985 -13.282560 12.778593 3.670545 31.736662 -15.134992 -3.589869 14.360177 0.000000 0.000000 0.000000 5.228811 -1.751841 3.580498 3.788433 2.325884 -31.056413 -7.458683 5.578968 7.606509 9.579427 10.635087 19.562669 0.000000 0.000000 0.000000 1.406289 -0.896249 -5.336811 1.464680 2.293570 -5.544043 -1.651370 -3.063919 8.591239 0.067059 0.142206 0.026340 -1.897600 -1.680788 10.589102 1.866804 -6.276523 15.688962 0.000000 0.000000 0.000000 -0.578501 -0.902321 7.773651 -10.713663 -5.801596 1.689291 -37.034194 19.501985 15.704331 -4.730403 -61.323016 5.860354 0.000000 0.000000 0.000000 -3.834431 -0.094469 7.532201 21.512371 0.878908 -3.936650 35.259042 -5.413100 -8.975410 -3.061761 36.595587 -6.199857 0.000000 0.000000 0.000000 
21.392382 34.732109 -18.405346 179.603663 -8.323187 179.536741 -0.870369 -6.069256 7.413297 -6.238293 -9.738922 -13.177901 13.201617 3.437425 33.961353 -15.860659 -3.223927 15.854379 0.000000 0.000000 0.000000 5.885361 -2.313421 3.428724 3.668276 2.440910 -30.024306 -7.812131 6.337928 8.210161 10.250194 10.951320 18.186975 0.000000 0.000000 0.000000 1.642120 -1.335154 -5.475671 1.578512 2.721058 -4.784686 -1.555367 -3.071642 8.798545 0.005952 0.117785 -0.044377 -1.788715 -1.656209 10.811056 2.188370 -6.669639 15.184298 0.000000 0.000000 0.000000 -0.512482 -0.921682 7.984209 -10.770715 -5.478745 1.951598 -38.458818 22.193462 14.818375 -4.546322 -58.951800 5.922504 0.000000 0.000000 0.000000 -3.759512 -0.053624 7.703475 21.201711 1.299144 -3.496288 36.313640 -6.343692 -5.416797 -2.675850 34.484901 -5.844013 0.000000 0.000000 0.000000 
